<svg xmlns="http://www.w3.org/2000/svg" width="1792" height="1792" viewBox="0 0 1792 1792"><path d="m 836.26515,1372.5303 313.60795,-358.4091 -716.81819,0 -313.60797,358.4091 716.81821,0 z M 1781.7558,367.30477 q 14.0004,31.73414 8.8669,66.73503 -5.1334,35.00089 -28.4674,61.13488 L 925.86743,1450.9323 Q 890.39986,1492 836.26515,1492 l -716.81821,0 q -35.46757,0 -64.868318,-19.1338 -29.400746,-19.1338 -44.334459,-50.868 -14.0003562,-31.7341 -8.8668922,-66.735 5.133464,-35.0009 28.4673902,-61.1349 L 866.13257,338.3707 q 35.46757,-41.06771 89.60228,-41.06771 l 716.81825,0 q 35.4675,0 64.8683,19.13382 29.4007,19.13382 44.3344,50.86796 z"/></svg>